<?xml version="1.0" encoding="utf-8"?>
<!-- Generator: Adobe Illustrator 26.5.0, SVG Export Plug-In . SVG Version: 6.00 Build 0)  -->
<svg version="1.1" id="Layer_1" xmlns="http://www.w3.org/2000/svg" xmlns:xlink="http://www.w3.org/1999/xlink" x="0px" y="0px"
	 viewBox="0 0 1366 768" style="enable-background:new 0 0 1366 768;" xml:space="preserve">
<style type="text/css">
	.st0{fill:url(#SVGID_1_);}
	.st1{filter:url(#Adobe_OpacityMaskFilter);}
	.st2{clip-path:url(#SVGID_00000160872068250910653290000009220691742571441804_);}
	.st3{enable-background:new    ;}
	
		.st4{clip-path:url(#SVGID_00000160872068250910653290000009220691742571441804_);mask:url(#h_00000079449192189127990440000004804694483318929830_);}
	.st5{fill:#4A2E6F;}
	.st6{fill:#EBEBEB;}
	.st7{filter:url(#Adobe_OpacityMaskFilter_00000168818715125029363580000014144095761633408442_);}
	.st8{clip-path:url(#SVGID_00000117638617279971213270000006486990880329641133_);}
	
		.st9{clip-path:url(#SVGID_00000117638617279971213270000006486990880329641133_);mask:url(#l_00000017509313470067236930000018332082310583535518_);}
</style>
<linearGradient id="SVGID_1_" gradientUnits="userSpaceOnUse" x1="149.8" y1="919.8" x2="1216.2001" y2="-146.6" gradientTransform="matrix(1 0 0 -1 0 770)">
	<stop  offset="0" style="stop-color:#CBA886"/>
	<stop  offset="1" style="stop-color:#FB5B59"/>
</linearGradient>
<rect class="st0" width="1366" height="766.8"/>
<g>
	<g>
		<defs>
			<rect id="SVGID_00000158723575459925144350000005219462398971033011_" x="706.7" y="36" width="582.7" height="697.3"/>
		</defs>
		<clipPath id="SVGID_00000044895319397684769230000010403199369625069739_">
			<use xlink:href="#SVGID_00000158723575459925144350000005219462398971033011_"  style="overflow:visible;"/>
		</clipPath>
		<defs>
			<filter id="Adobe_OpacityMaskFilter" filterUnits="userSpaceOnUse" x="706.3" y="35.4" width="583" height="698">
				<feColorMatrix  type="matrix" values="1 0 0 0 0  0 1 0 0 0  0 0 1 0 0  0 0 0 1 0"/>
			</filter>
		</defs>
		
			<mask maskUnits="userSpaceOnUse" x="706.3" y="35.4" width="583" height="698" id="h_00000079449192189127990440000004804694483318929830_">
			<g class="st1">
				<g transform="matrix(.29826 0 0 .2983 529.746 26.568)">
					<g>
						<defs>
							<rect id="SVGID_00000176030230109026871140000001703316669361676985_" x="911.2" y="280.6" width="173.8" height="208"/>
						</defs>
						
							<clipPath id="SVGID_00000027594276487679360470000000801164266455707016_" style="clip-path:url(#SVGID_00000044895319397684769230000010403199369625069739_);">
							<use xlink:href="#SVGID_00000176030230109026871140000001703316669361676985_"  style="overflow:visible;"/>
						</clipPath>
						<g class="st3">
						</g>
					</g>
				</g>
			</g>
		</mask>
		
			<g style="clip-path:url(#SVGID_00000044895319397684769230000010403199369625069739_);mask:url(#h_00000079449192189127990440000004804694483318929830_);">
			<g class="st3">
			</g>
		</g>
	</g>
</g>
<path class="st5" d="M242,296.7c1.3,0,2.3,0,3,0.1s1.4,0.4,2.2,0.8s1.4,1.2,1.8,2.3c0.3,1.1,0.5,2.5,0.5,4.4c0,1.8-0.2,3.3-0.5,4.4
	s-0.9,1.8-1.8,2.3c-0.8,0.4-1.6,0.7-2.2,0.8c-0.7,0.1-1.7,0.1-3,0.1h-26.1v8.6h16.8c1.4,0,2.4,0.1,3,0.1c0.7,0.1,1.4,0.3,2.3,0.8
	c1.5,0.9,2.2,3.1,2.2,6.7c0,4-1.1,6.3-3.2,7.1c-0.9,0.3-2.4,0.4-4.4,0.4h-16.7v16.1c0,1.4,0,2.4-0.1,3s-0.4,1.4-0.8,2.2
	c-0.8,1.5-3,2.3-6.7,2.3c-4,0-6.3-1.1-7-3.3c-0.3-0.9-0.5-2.4-0.5-4.4v-47.4c0-2.9,0.5-4.9,1.6-5.9c1.1-1.1,3.1-1.6,6.2-1.6H242
	V296.7z M284.1,319.1c0.3-3.2,2.6-4.8,6.7-4.8c2.2,0,3.9,0.2,5,0.5s1.8,0.9,2.2,1.8c0.4,0.8,0.7,1.6,0.8,2.3
	c0.1,0.7,0.1,1.6,0.1,2.9v29.9c0,1.3,0,2.3-0.1,3s-0.3,1.4-0.7,2.2c-0.8,1.5-2.7,2.2-5.8,2.2c-3.1,0-5.2-0.4-6.2-1.1
	c-1.1-0.8-1.7-1.9-1.8-3.4c-2.1,3-5.6,4.5-10.5,4.5s-9.5-2.2-13.7-6.7c-4.2-4.5-6.3-9.7-6.3-15.7c0-5.9,2.1-11.1,6.4-15.6
	c4.3-4.5,8.9-6.7,14-6.7c1.9,0,3.7,0.3,5.3,1c1.6,0.7,2.7,1.3,3.3,1.9C283.2,317.9,283.7,318.5,284.1,319.1L284.1,319.1z
	 M268.6,336.8c0,1.9,0.7,3.6,2.2,5.1s3.3,2.2,5.4,2.2s3.9-0.8,5.3-2.3s2.1-3.2,2.1-5.1c0-1.8-0.7-3.6-2-5.2s-3.1-2.4-5.4-2.4
	c-2.2,0-4.1,0.8-5.5,2.4C269.3,333.2,268.6,334.9,268.6,336.8L268.6,336.8z M336.3,314.8c1.1,0.3,2,0.9,2.7,1.7
	c0.7,0.8,1.1,2.1,1.1,4c0,1.8-0.5,3.8-1.6,6s-2.6,3.3-4.7,3.3c-1,0-2-0.2-2.9-0.7s-2.2-0.7-3.7-0.7s-3,0.5-4.3,1.6s-2,2.4-2,3.9
	v17.9c0,1.3-0.1,2.3-0.1,2.9c-0.1,0.7-0.3,1.4-0.8,2.3c-0.9,1.5-3.1,2.2-6.7,2.2c-2.7,0-4.7-0.5-5.9-1.5c-0.9-0.8-1.4-2-1.5-3.7
	v-32.4c0-1.3,0-2.3,0.1-2.9c0.1-0.7,0.3-1.4,0.7-2.2c0.8-1.5,3-2.3,6.6-2.3c3.4,0,5.5,0.7,6.4,2c0.6,0.9,1,1.8,1,2.8
	c0.3-0.4,0.7-0.9,1.2-1.5s1.7-1.3,3.5-2.3s3.3-1.5,4.6-1.5c1.3,0,2.4,0.1,3.4,0.2C334.2,314.2,335.2,314.4,336.3,314.8L336.3,314.8z
	 M388.1,331.4c0,3.5-0.9,6.1-2.6,7.8c-1.7,1.7-3.7,2.5-5.8,2.5h-20.2c0,1.6,0.9,2.9,2.8,4s3.8,1.6,5.6,1.6c3.3,0,5.9-0.3,7.8-1
	l0.9-0.3c1.4-0.6,2.5-0.9,3.4-0.9c1.8,0,3.4,1.3,4.7,3.8c0.7,1.5,1.1,2.9,1.1,3.9c0,5.1-6.1,7.6-18.2,7.6c-4.2,0-8-0.7-11.2-2.2
	c-3.3-1.5-5.8-3.4-7.6-5.8c-3.6-4.6-5.4-9.7-5.4-15.4c0-7.2,2.3-12.9,7-17.2c4.6-4.3,10.4-6.5,17.4-6.5c7.9,0,13.7,2.8,17.4,8.4
	C387.2,324.7,388.1,327.9,388.1,331.4L388.1,331.4z M370.1,333.9c2.2,0,3.3-0.9,3.3-2.7c0-1.3-0.5-2.4-1.5-3.1
	c-1-0.8-2.4-1.2-4.3-1.2c-1.8,0-3.7,0.8-5.5,2.3s-2.7,3.1-2.7,4.8L370.1,333.9L370.1,333.9z M451.2,314.6c3.6,1.6,5.5,3.5,5.5,5.9
	c0,1-0.5,2.5-1.4,4.7c-0.9,2.1-1.7,4-2.3,5.6l-9.4,22.9c-0.8,2.5-2.3,4.3-4.3,5.3c-0.8,0.4-1.9,0.6-3.3,0.6c-1.3,0-2.6-0.5-3.8-1.5
	c-1.2-1-2-2-2.4-3l-0.7-1.4c-0.5-1.1-2.1-5.6-5-13.3c-0.6,1.4-1.4,3.6-2.5,6.7s-1.8,5-2.1,5.8c-0.3,0.8-0.5,1.3-0.6,1.5
	c-0.1,0.3-0.3,0.7-0.7,1.4c-0.4,0.7-0.8,1.3-1.4,1.8c-1.4,1.4-2.9,2-4.7,2c-1.8,0-3.2-0.5-4.4-1.5c-1.2-1-2-2-2.4-3l-12.9-31.4
	c-0.6-1.7-0.9-2.8-0.9-3.3c0-2.3,1.6-4.1,4.9-5.4c1.8-0.7,3.3-1.1,4.4-1.1s2.1,0.2,2.8,0.7c0.7,0.5,1.2,1,1.5,1.4
	c0.3,0.5,0.5,1,0.7,1.5c1,2.3,3,7.6,6.1,16l5-13.8c0.3-1.1,1-2.1,1.9-3c1.7-1.7,3.3-2.5,5-2.5s3.2,0.5,4.4,1.4
	c1.2,0.9,2.1,1.8,2.5,2.7l0.7,1.5c2.8,8,4.5,12.5,5,13.6l5.2-14.2c1.4-3.6,3.4-5.5,6.1-5.5C448.9,313.8,450,314,451.2,314.6
	L451.2,314.6z M504.7,331.4c0,3.5-0.9,6.1-2.6,7.8c-1.7,1.7-3.7,2.5-5.8,2.5h-20.2c0,1.6,0.9,2.9,2.8,4s3.8,1.6,5.6,1.6
	c3.3,0,5.9-0.3,7.8-1l0.9-0.3c1.4-0.6,2.5-0.9,3.4-0.9c1.8,0,3.4,1.3,4.7,3.8c0.7,1.5,1.1,2.9,1.1,3.9c0,5.1-6.1,7.6-18.2,7.6
	c-4.2,0-8-0.7-11.2-2.2c-3.3-1.5-5.8-3.4-7.6-5.8c-3.6-4.6-5.4-9.7-5.4-15.4c0-7.2,2.3-12.9,7-17.2c4.6-4.3,10.4-6.5,17.4-6.5
	c7.9,0,13.7,2.8,17.4,8.4C503.7,324.7,504.7,327.9,504.7,331.4L504.7,331.4z M486.7,333.9c2.2,0,3.3-0.9,3.3-2.7
	c0-1.3-0.5-2.4-1.5-3.1c-1-0.8-2.4-1.2-4.3-1.2c-1.8,0-3.7,0.8-5.5,2.3s-2.7,3.1-2.7,4.8L486.7,333.9L486.7,333.9z M510.2,300.6
	c0-1.3,0-2.3,0.1-2.9c0.1-0.7,0.3-1.4,0.7-2.3c0.8-1.5,3-2.3,6.6-2.3c3.5,0,5.6,0.8,6.5,2.3c0.4,0.9,0.7,1.6,0.8,2.3
	c0.1,0.7,0.1,1.7,0.1,3v39.5c0,2,0.2,3.3,0.5,3.9c0.3,0.5,1.1,0.8,2.3,0.8s1.9,0,2.3,0.1c0.4,0.1,0.9,0.3,1.5,0.7
	c1.1,0.7,1.7,2.8,1.7,6.1c0,3.6-0.6,5.8-1.7,6.6c-1.5,1-5,1.2-10.6,0.5c-4.4-0.6-7.2-2-8.5-4.4c-1.6-2.8-2.4-7.2-2.4-13.3
	L510.2,300.6z M538.1,300.6c0-1.3,0-2.3,0.1-2.9c0.1-0.7,0.3-1.4,0.7-2.3c0.8-1.5,3-2.3,6.6-2.3c3.5,0,5.6,0.8,6.5,2.3
	c0.4,0.9,0.7,1.6,0.8,2.3c0.1,0.7,0.1,1.7,0.1,3v39.5c0,2,0.2,3.3,0.5,3.9c0.3,0.5,1.1,0.8,2.3,0.8s1.9,0,2.3,0.1
	c0.4,0.1,0.9,0.3,1.5,0.7c1.1,0.7,1.7,2.8,1.7,6.1c0,3.6-0.6,5.8-1.7,6.6c-1.5,1-5,1.2-10.6,0.5c-4.4-0.6-7.2-2-8.5-4.4
	c-1.6-2.8-2.4-7.2-2.4-13.3L538.1,300.6z"/>
<g>
	<g>
		<path class="st6" d="M202.2,479.3c0,5,4,9,9,9H549c5,0,9-4,9-9v-56.7c0-5-4-9-9-9H211.2c-5,0-9,4-9,9V479.3z"/>
	</g>
</g>
<path class="st5" d="M329.8,458.4c0,0.3-0.1,0.6-0.4,0.9c-0.2,0.2-0.5,0.3-0.9,0.3s-0.7-0.1-0.9-0.3c-0.2-0.2-0.3-0.6-0.3-0.9v-14.9
	c0-0.3,0.1-0.6,0.4-0.8c0.2-0.2,0.6-0.4,0.9-0.4s0.6,0.1,0.8,0.4c0.2,0.2,0.4,0.5,0.4,0.8V458.4z M340.2,446.4c3,0,4.4,1.8,4.4,5.3
	v6.7c0,0.3-0.1,0.6-0.3,0.9c-0.2,0.2-0.5,0.3-0.9,0.3c-0.3,0-0.6-0.1-0.8-0.3c-0.2-0.2-0.3-0.5-0.3-0.9v-6.7c0-1-0.2-1.7-0.7-2.3
	c-0.4-0.6-1.2-0.9-2.2-0.9c-0.7,0-1.3,0.1-1.8,0.4s-0.9,0.7-1.3,1.1c-0.3,0.5-0.5,1-0.5,1.6v6.7c0,0.3-0.1,0.6-0.3,0.9
	c-0.2,0.2-0.5,0.3-0.9,0.3c-0.3,0-0.6-0.1-0.9-0.3c-0.2-0.2-0.3-0.5-0.3-0.9v-10.6c0-0.3,0.1-0.6,0.3-0.8c0.2-0.2,0.5-0.4,0.8-0.4
	s0.6,0.1,0.9,0.4c0.2,0.2,0.3,0.5,0.3,0.8v0.9c0.4-0.7,1-1.2,1.8-1.7C338.4,446.6,339.3,446.4,340.2,446.4z M358,446.6
	c0.3,0,0.6,0.1,0.8,0.3c0.2,0.2,0.3,0.4,0.3,0.7c0,0.2-0.1,0.4-0.2,0.6l-4.7,10.7c-0.1,0.2-0.2,0.4-0.4,0.5
	c-0.2,0.1-0.4,0.2-0.6,0.2c-0.3,0-0.5,0-0.7-0.1s-0.4-0.4-0.5-0.6l-4.7-10.7c-0.1-0.2-0.1-0.4-0.1-0.6c0-0.3,0.1-0.5,0.3-0.7
	c0.2-0.2,0.5-0.3,0.9-0.3c0.2,0,0.5,0.1,0.7,0.2s0.4,0.3,0.5,0.5l3.8,8.7l3.7-8.7C357.1,446.8,357.5,446.6,358,446.6L358,446.6z
	 M363.9,458.4c0,0.3-0.1,0.6-0.3,0.9c-0.2,0.2-0.5,0.3-0.9,0.3c-0.3,0-0.6-0.1-0.8-0.3c-0.2-0.2-0.3-0.5-0.3-0.9v-10.7
	c0-0.3,0.1-0.6,0.3-0.8c0.2-0.2,0.5-0.4,0.8-0.4s0.6,0.1,0.9,0.4c0.2,0.2,0.3,0.5,0.3,0.8V458.4z M362.7,444.9c-0.5,0-0.8-0.1-1-0.3
	c-0.2-0.2-0.3-0.5-0.3-0.8v-0.4c0-0.4,0.1-0.7,0.3-0.8c0.2-0.2,0.6-0.2,1-0.2c0.5,0,0.8,0.1,1,0.3c0.2,0.2,0.3,0.4,0.3,0.8v0.4
	c0,0.4-0.1,0.7-0.3,0.9C363.5,444.8,363.1,444.9,362.7,444.9z M370.8,449v7.4c0,0.8,0.4,1.3,1.1,1.3c0.1,0,0.3,0,0.5-0.1
	s0.4-0.1,0.5-0.1c0.2,0,0.4,0.1,0.5,0.3c0.2,0.2,0.2,0.5,0.2,0.7c0,0.3-0.2,0.6-0.6,0.9s-0.9,0.4-1.3,0.4c-0.5,0-1-0.1-1.5-0.2
	c-0.4-0.1-0.8-0.4-1.2-0.9c-0.3-0.5-0.5-1.2-0.5-2.1V449H367c-0.3,0-0.6-0.1-0.8-0.3c-0.2-0.2-0.3-0.5-0.3-0.8s0.1-0.6,0.3-0.8
	c0.2-0.2,0.5-0.3,0.8-0.3h1.4v-2.1c0-0.3,0.1-0.6,0.3-0.8c0.2-0.2,0.5-0.4,0.9-0.4c0.3,0,0.6,0.1,0.8,0.4c0.2,0.2,0.3,0.5,0.3,0.8
	v2.1h2c0.3,0,0.6,0.1,0.8,0.3c0.2,0.2,0.3,0.5,0.3,0.8s-0.1,0.6-0.3,0.8c-0.2,0.2-0.5,0.3-0.8,0.3H370.8z M387.1,446.5
	c0.3,0,0.6,0.1,0.9,0.3c0.2,0.2,0.3,0.5,0.3,0.9v10.7c0,0.3-0.1,0.6-0.3,0.9c-0.2,0.2-0.5,0.3-0.9,0.3c-0.3,0-0.6-0.1-0.8-0.3
	c-0.2-0.2-0.3-0.5-0.3-0.9v-0.6c-0.4,0.6-1,1.1-1.8,1.5c-0.7,0.4-1.5,0.6-2.4,0.6c-1.1,0-2.1-0.3-3-0.9s-1.7-1.4-2.2-2.4
	s-0.8-2.2-0.8-3.5s0.3-2.4,0.8-3.5c0.5-1,1.2-1.8,2.1-2.4s1.9-0.9,3-0.9c0.9,0,1.7,0.2,2.4,0.5c0.7,0.4,1.4,0.8,1.8,1.4v-0.6
	c0-0.3,0.1-0.6,0.3-0.9C386.5,446.6,386.8,446.5,387.1,446.5L387.1,446.5z M382.1,457.7c0.8,0,1.5-0.2,2.1-0.6s1.1-0.9,1.4-1.6
	s0.5-1.5,0.5-2.4s-0.2-1.6-0.5-2.3c-0.3-0.7-0.8-1.2-1.4-1.6s-1.3-0.6-2.1-0.6c-0.8,0-1.5,0.2-2.1,0.6s-1.1,0.9-1.4,1.6
	s-0.5,1.5-0.5,2.3c0,0.9,0.2,1.7,0.5,2.4c0.3,0.7,0.8,1.2,1.4,1.6S381.3,457.7,382.1,457.7L382.1,457.7z M395.3,449v7.4
	c0,0.8,0.4,1.3,1.1,1.3c0.1,0,0.3,0,0.5-0.1s0.4-0.1,0.5-0.1c0.2,0,0.4,0.1,0.5,0.3c0.2,0.2,0.2,0.5,0.2,0.7c0,0.3-0.2,0.6-0.6,0.9
	s-0.9,0.4-1.3,0.4c-0.5,0-1-0.1-1.5-0.2c-0.4-0.1-0.8-0.4-1.2-0.9c-0.3-0.5-0.5-1.2-0.5-2.1V449h-1.4c-0.3,0-0.6-0.1-0.8-0.3
	c-0.2-0.2-0.3-0.5-0.3-0.8s0.1-0.6,0.3-0.8c0.2-0.2,0.5-0.3,0.8-0.3h1.4v-2.1c0-0.3,0.1-0.6,0.3-0.8c0.2-0.2,0.5-0.4,0.9-0.4
	c0.3,0,0.6,0.1,0.8,0.4c0.2,0.2,0.3,0.5,0.3,0.8v2.1h2c0.3,0,0.6,0.1,0.8,0.3c0.2,0.2,0.3,0.5,0.3,0.8s-0.1,0.6-0.3,0.8
	c-0.2,0.2-0.5,0.3-0.8,0.3H395.3z M403.4,458.4c0,0.3-0.1,0.6-0.3,0.9c-0.2,0.2-0.5,0.3-0.9,0.3c-0.3,0-0.6-0.1-0.8-0.3
	c-0.2-0.2-0.3-0.5-0.3-0.9v-10.7c0-0.3,0.1-0.6,0.3-0.8c0.2-0.2,0.5-0.4,0.8-0.4s0.6,0.1,0.9,0.4c0.2,0.2,0.3,0.5,0.3,0.8V458.4z
	 M402.2,444.9c-0.5,0-0.8-0.1-1-0.3c-0.2-0.2-0.3-0.5-0.3-0.8v-0.4c0-0.4,0.1-0.7,0.3-0.8c0.2-0.2,0.6-0.2,1-0.2
	c0.5,0,0.8,0.1,1,0.3c0.2,0.2,0.3,0.4,0.3,0.8v0.4c0,0.4-0.1,0.7-0.3,0.9C403,444.8,402.7,444.9,402.2,444.9L402.2,444.9z
	 M419,453.1c0,1.3-0.3,2.5-0.9,3.5s-1.4,1.8-2.4,2.4s-2.1,0.9-3.3,0.9c-1.2,0-2.3-0.3-3.3-0.9s-1.8-1.4-2.4-2.4s-0.9-2.2-0.9-3.5
	s0.3-2.4,0.9-3.5c0.6-1,1.4-1.8,2.4-2.4s2.1-0.9,3.3-0.9c1.2,0,2.3,0.3,3.3,0.9s1.8,1.4,2.4,2.4C418.7,450.7,419,451.9,419,453.1
	L419,453.1z M416.7,453.1c0-0.9-0.2-1.7-0.6-2.4c-0.3-0.7-0.9-1.2-1.5-1.6s-1.4-0.6-2.1-0.6c-0.8,0-1.5,0.2-2.1,0.6
	s-1.1,0.9-1.5,1.6s-0.5,1.5-0.5,2.4s0.2,1.7,0.5,2.4c0.4,0.7,0.9,1.2,1.5,1.6s1.4,0.6,2.1,0.6c0.8,0,1.5-0.2,2.1-0.6
	s1.1-0.9,1.5-1.6S416.7,454,416.7,453.1L416.7,453.1z M428.4,446.4c3,0,4.4,1.8,4.4,5.3v6.7c0,0.3-0.1,0.6-0.3,0.9
	c-0.2,0.2-0.5,0.3-0.9,0.3c-0.3,0-0.6-0.1-0.8-0.3c-0.2-0.2-0.3-0.5-0.3-0.9v-6.7c0-1-0.2-1.7-0.7-2.3c-0.4-0.6-1.2-0.9-2.2-0.9
	c-0.7,0-1.3,0.1-1.8,0.4s-0.9,0.7-1.2,1.1c-0.3,0.5-0.5,1-0.5,1.6v6.7c0,0.3-0.1,0.6-0.3,0.9c-0.2,0.2-0.5,0.3-0.9,0.3
	c-0.3,0-0.6-0.1-0.9-0.3c-0.2-0.2-0.3-0.5-0.3-0.9v-10.6c0-0.3,0.1-0.6,0.3-0.8c0.2-0.2,0.5-0.4,0.8-0.4s0.6,0.1,0.9,0.4
	c0.2,0.2,0.3,0.5,0.3,0.8v0.9c0.4-0.7,1-1.2,1.8-1.7C426.6,446.6,427.5,446.4,428.4,446.4z"/>
<g>
	<g>
		<defs>
			<rect id="SVGID_00000021798863868208762780000008558995375039399076_" y="748.6" width="1365.3" height="19.2"/>
		</defs>
		<clipPath id="SVGID_00000160873371041605750960000010046145150271104663_">
			<use xlink:href="#SVGID_00000021798863868208762780000008558995375039399076_"  style="overflow:visible;"/>
		</clipPath>
		<defs>
			
				<filter id="Adobe_OpacityMaskFilter_00000038397068223473195610000001293038554838838933_" filterUnits="userSpaceOnUse" x="-25" y="748.6" width="1391" height="35">
				<feColorMatrix  type="matrix" values="1 0 0 0 0  0 1 0 0 0  0 0 1 0 0  0 0 0 1 0"/>
			</filter>
		</defs>
		
			<mask maskUnits="userSpaceOnUse" x="-25" y="748.6" width="1391" height="35" id="l_00000017509313470067236930000018332082310583535518_">
			<g style="filter:url(#Adobe_OpacityMaskFilter_00000038397068223473195610000001293038554838838933_);">
				<g transform="matrix(1.4098 0 0 1.3125 -18.754 561.425)">
					<g>
						<defs>
							<rect id="SVGID_00000127723974850659932010000009542917241898507673_" x="-279.8" y="745.6" width="1924.8" height="25.2"/>
						</defs>
						
							<clipPath id="SVGID_00000037685469703266585260000005629794976041268117_" style="clip-path:url(#SVGID_00000160873371041605750960000010046145150271104663_);">
							<use xlink:href="#SVGID_00000127723974850659932010000009542917241898507673_"  style="overflow:visible;"/>
						</clipPath>
						<g class="st3">
						</g>
					</g>
				</g>
			</g>
		</mask>
		
			<g style="clip-path:url(#SVGID_00000160873371041605750960000010046145150271104663_);mask:url(#l_00000017509313470067236930000018332082310583535518_);">
			<g>
				<g class="st3">
				</g>
			</g>
		</g>
	</g>
</g>
<image style="overflow:visible;" width="733" height="878" xlink:href="0fbc092fa2de5123f3f3400955a85cf4.png"  transform="matrix(0.8326 0 0 0.7574 722.7001 36)">
</image>
</svg>
