<?xml version="1.0" encoding="UTF-8"?>
<svg id="a" data-name="Layer 1" xmlns="http://www.w3.org/2000/svg" xmlns:xlink="http://www.w3.org/1999/xlink" viewBox="0 0 1366 767.8">
  <defs>
    <style>
      .c {
        isolation: isolate;
      }

      .d {
        fill: #ebebeb;
      }

      .e {
        fill: url(#b);
      }

      .f {
        fill: #4a2e6f;
      }
    </style>
    <linearGradient id="b" x1="149.8" y1="1516.2" x2="1216.2" y2="2582.6" gradientTransform="translate(0 -1666)" gradientUnits="userSpaceOnUse">
      <stop offset="0" stop-color="#cba886"/>
      <stop offset="1" stop-color="#fb5b59"/>
    </linearGradient>
  </defs>
  <rect class="e" width="1366" height="766.8"/>
  <path class="f" d="M242,296.7c1.3,0,2.3,0,3,.1s1.4,.4,2.2,.8,1.4,1.2,1.8,2.3c.3,1.1,.5,2.5,.5,4.4,0,1.8-.2,3.3-.5,4.4s-.9,1.8-1.8,2.3c-.8,.4-1.6,.7-2.2,.8-.7,.1-1.7,.1-3,.1h-26.1v8.6h16.8c1.4,0,2.4,.1,3,.1,.7,.1,1.4,.3,2.3,.8,1.5,.9,2.2,3.1,2.2,6.7,0,4-1.1,6.3-3.2,7.1-.9,.3-2.4,.4-4.4,.4h-16.7v16.1c0,1.4,0,2.4-.1,3s-.4,1.4-.8,2.2c-.8,1.5-3,2.3-6.7,2.3-4,0-6.3-1.1-7-3.3-.3-.9-.5-2.4-.5-4.4v-47.4c0-2.9,.5-4.9,1.6-5.9,1.1-1.1,3.1-1.6,6.2-1.6h33.4v.1Zm42.1,22.4c.3-3.2,2.6-4.8,6.7-4.8,2.2,0,3.9,.2,5,.5s1.8,.9,2.2,1.8c.4,.8,.7,1.6,.8,2.3,.1,.7,.1,1.6,.1,2.9v29.9c0,1.3,0,2.3-.1,3s-.3,1.4-.7,2.2c-.8,1.5-2.7,2.2-5.8,2.2s-5.2-.4-6.2-1.1c-1.1-.8-1.7-1.9-1.8-3.4-2.1,3-5.6,4.5-10.5,4.5s-9.5-2.2-13.7-6.7c-4.2-4.5-6.3-9.7-6.3-15.7s2.1-11.1,6.4-15.6c4.3-4.5,8.9-6.7,14-6.7,1.9,0,3.7,.3,5.3,1,1.6,.7,2.7,1.3,3.3,1.9,.4,.6,.9,1.2,1.3,1.8h0Zm-15.5,17.7c0,1.9,.7,3.6,2.2,5.1s3.3,2.2,5.4,2.2,3.9-.8,5.3-2.3,2.1-3.2,2.1-5.1c0-1.8-.7-3.6-2-5.2s-3.1-2.4-5.4-2.4-4.1,.8-5.5,2.4c-1.4,1.7-2.1,3.4-2.1,5.3h0Zm67.7-22c1.1,.3,2,.9,2.7,1.7,.7,.8,1.1,2.1,1.1,4,0,1.8-.5,3.8-1.6,6s-2.6,3.3-4.7,3.3c-1,0-2-.2-2.9-.7s-2.2-.7-3.7-.7-3,.5-4.3,1.6-2,2.4-2,3.9v17.9c0,1.3-.1,2.3-.1,2.9-.1,.7-.3,1.4-.8,2.3-.9,1.5-3.1,2.2-6.7,2.2-2.7,0-4.7-.5-5.9-1.5-.9-.8-1.4-2-1.5-3.7v-32.4c0-1.3,0-2.3,.1-2.9,.1-.7,.3-1.4,.7-2.2,.8-1.5,3-2.3,6.6-2.3,3.4,0,5.5,.7,6.4,2,.6,.9,1,1.8,1,2.8,.3-.4,.7-.9,1.2-1.5s1.7-1.3,3.5-2.3,3.3-1.5,4.6-1.5,2.4,.1,3.4,.2c.8,.3,1.8,.5,2.9,.9h0Zm51.8,16.6c0,3.5-.9,6.1-2.6,7.8-1.7,1.7-3.7,2.5-5.8,2.5h-20.2c0,1.6,.9,2.9,2.8,4s3.8,1.6,5.6,1.6c3.3,0,5.9-.3,7.8-1l.9-.3c1.4-.6,2.5-.9,3.4-.9,1.8,0,3.4,1.3,4.7,3.8,.7,1.5,1.1,2.9,1.1,3.9,0,5.1-6.1,7.6-18.2,7.6-4.2,0-8-.7-11.2-2.2-3.3-1.5-5.8-3.4-7.6-5.8-3.6-4.6-5.4-9.7-5.4-15.4,0-7.2,2.3-12.9,7-17.2,4.6-4.3,10.4-6.5,17.4-6.5,7.9,0,13.7,2.8,17.4,8.4,2,3,2.9,6.2,2.9,9.7h0Zm-18,2.5c2.2,0,3.3-.9,3.3-2.7,0-1.3-.5-2.4-1.5-3.1-1-.8-2.4-1.2-4.3-1.2-1.8,0-3.7,.8-5.5,2.3s-2.7,3.1-2.7,4.8l10.7-.1h0Zm81.1-19.3c3.6,1.6,5.5,3.5,5.5,5.9,0,1-.5,2.5-1.4,4.7-.9,2.1-1.7,4-2.3,5.6l-9.4,22.9c-.8,2.5-2.3,4.3-4.3,5.3-.8,.4-1.9,.6-3.3,.6-1.3,0-2.6-.5-3.8-1.5-1.2-1-2-2-2.4-3l-.7-1.4c-.5-1.1-2.1-5.6-5-13.3-.6,1.4-1.4,3.6-2.5,6.7s-1.8,5-2.1,5.8c-.3,.8-.5,1.3-.6,1.5-.1,.3-.3,.7-.7,1.4-.4,.7-.8,1.3-1.4,1.8-1.4,1.4-2.9,2-4.7,2s-3.2-.5-4.4-1.5c-1.2-1-2-2-2.4-3l-12.9-31.4c-.6-1.7-.9-2.8-.9-3.3,0-2.3,1.6-4.1,4.9-5.4,1.8-.7,3.3-1.1,4.4-1.1s2.1,.2,2.8,.7c.7,.5,1.2,1,1.5,1.4,.3,.5,.5,1,.7,1.5,1,2.3,3,7.6,6.1,16l5-13.8c.3-1.1,1-2.1,1.9-3,1.7-1.7,3.3-2.5,5-2.5s3.2,.5,4.4,1.4c1.2,.9,2.1,1.8,2.5,2.7l.7,1.5c2.8,8,4.5,12.5,5,13.6l5.2-14.2c1.4-3.6,3.4-5.5,6.1-5.5,1.2,.1,2.3,.3,3.5,.9h0Zm53.5,16.8c0,3.5-.9,6.1-2.6,7.8-1.7,1.7-3.7,2.5-5.8,2.5h-20.2c0,1.6,.9,2.9,2.8,4s3.8,1.6,5.6,1.6c3.3,0,5.9-.3,7.8-1l.9-.3c1.4-.6,2.5-.9,3.4-.9,1.8,0,3.4,1.3,4.7,3.8,.7,1.5,1.1,2.9,1.1,3.9,0,5.1-6.1,7.6-18.2,7.6-4.2,0-8-.7-11.2-2.2-3.3-1.5-5.8-3.4-7.6-5.8-3.6-4.6-5.4-9.7-5.4-15.4,0-7.2,2.3-12.9,7-17.2,4.6-4.3,10.4-6.5,17.4-6.5,7.9,0,13.7,2.8,17.4,8.4,1.9,3,2.9,6.2,2.9,9.7h0Zm-18,2.5c2.2,0,3.3-.9,3.3-2.7,0-1.3-.5-2.4-1.5-3.1-1-.8-2.4-1.2-4.3-1.2-1.8,0-3.7,.8-5.5,2.3s-2.7,3.1-2.7,4.8l10.7-.1h0Zm23.5-33.3c0-1.3,0-2.3,.1-2.9,.1-.7,.3-1.4,.7-2.3,.8-1.5,3-2.3,6.6-2.3s5.6,.8,6.5,2.3c.4,.9,.7,1.6,.8,2.3,.1,.7,.1,1.7,.1,3v39.5c0,2,.2,3.3,.5,3.9,.3,.5,1.1,.8,2.3,.8s1.9,0,2.3,.1c.4,.1,.9,.3,1.5,.7,1.1,.7,1.7,2.8,1.7,6.1,0,3.6-.6,5.8-1.7,6.6-1.5,1-5,1.2-10.6,.5-4.4-.6-7.2-2-8.5-4.4-1.6-2.8-2.4-7.2-2.4-13.3l.1-40.6Zm27.9,0c0-1.3,0-2.3,.1-2.9,.1-.7,.3-1.4,.7-2.3,.8-1.5,3-2.3,6.6-2.3s5.6,.8,6.5,2.3c.4,.9,.7,1.6,.8,2.3,.1,.7,.1,1.7,.1,3v39.5c0,2,.2,3.3,.5,3.9,.3,.5,1.1,.8,2.3,.8s1.9,0,2.3,.1c.4,.1,.9,.3,1.5,.7,1.1,.7,1.7,2.8,1.7,6.1,0,3.6-.6,5.8-1.7,6.6-1.5,1-5,1.2-10.6,.5-4.4-.6-7.2-2-8.5-4.4-1.6-2.8-2.4-7.2-2.4-13.3l.1-40.6Z"/>
  <path class="d" d="M202.2,479.3c0,5,4,9,9,9h337.8c5,0,9-4,9-9v-56.7c0-5-4-9-9-9H211.2c-5,0-9,4-9,9v56.7Z"/>
  <path class="f" d="M329.8,458.4c0,.3-.1,.6-.4,.9-.2,.2-.5,.3-.9,.3s-.7-.1-.9-.3-.3-.6-.3-.9v-14.9c0-.3,.1-.6,.4-.8,.2-.2,.6-.4,.9-.4s.6,.1,.8,.4c.2,.2,.4,.5,.4,.8v14.9Zm10.4-12c3,0,4.4,1.8,4.4,5.3v6.7c0,.3-.1,.6-.3,.9-.2,.2-.5,.3-.9,.3-.3,0-.6-.1-.8-.3s-.3-.5-.3-.9v-6.7c0-1-.2-1.7-.7-2.3-.4-.6-1.2-.9-2.2-.9-.7,0-1.3,.1-1.8,.4s-.9,.7-1.3,1.1c-.3,.5-.5,1-.5,1.6v6.7c0,.3-.1,.6-.3,.9-.2,.2-.5,.3-.9,.3-.3,0-.6-.1-.9-.3-.2-.2-.3-.5-.3-.9v-10.6c0-.3,.1-.6,.3-.8s.5-.4,.8-.4,.6,.1,.9,.4c.2,.2,.3,.5,.3,.8v.9c.4-.7,1-1.2,1.8-1.7,.9-.3,1.8-.5,2.7-.5Zm17.8,.2c.3,0,.6,.1,.8,.3s.3,.4,.3,.7c0,.2-.1,.4-.2,.6l-4.7,10.7c-.1,.2-.2,.4-.4,.5-.2,.1-.4,.2-.6,.2-.3,0-.5,0-.7-.1s-.4-.4-.5-.6l-4.7-10.7c-.1-.2-.1-.4-.1-.6,0-.3,.1-.5,.3-.7,.2-.2,.5-.3,.9-.3,.2,0,.5,.1,.7,.2s.4,.3,.5,.5l3.8,8.7,3.7-8.7c0-.5,.4-.7,.9-.7h0Zm5.9,11.8c0,.3-.1,.6-.3,.9-.2,.2-.5,.3-.9,.3-.3,0-.6-.1-.8-.3s-.3-.5-.3-.9v-10.7c0-.3,.1-.6,.3-.8s.5-.4,.8-.4,.6,.1,.9,.4c.2,.2,.3,.5,.3,.8v10.7Zm-1.2-13.5c-.5,0-.8-.1-1-.3-.2-.2-.3-.5-.3-.8v-.4c0-.4,.1-.7,.3-.8,.2-.2,.6-.2,1-.2,.5,0,.8,.1,1,.3,.2,.2,.3,.4,.3,.8v.4c0,.4-.1,.7-.3,.9-.2,0-.6,.1-1,.1Zm8.1,4.1v7.4c0,.8,.4,1.3,1.1,1.3,.1,0,.3,0,.5-.1s.4-.1,.5-.1c.2,0,.4,.1,.5,.3,.2,.2,.2,.5,.2,.7,0,.3-.2,.6-.6,.9s-.9,.4-1.3,.4c-.5,0-1-.1-1.5-.2-.4-.1-.8-.4-1.2-.9-.3-.5-.5-1.2-.5-2.1v-7.6h-1.5c-.3,0-.6-.1-.8-.3s-.3-.5-.3-.8,.1-.6,.3-.8,.5-.3,.8-.3h1.4v-2.1c0-.3,.1-.6,.3-.8s.5-.4,.9-.4c.3,0,.6,.1,.8,.4,.2,.2,.3,.5,.3,.8v2.1h2c.3,0,.6,.1,.8,.3s.3,.5,.3,.8-.1,.6-.3,.8-.5,.3-.8,.3h-1.9Zm16.3-2.5c.3,0,.6,.1,.9,.3,.2,.2,.3,.5,.3,.9v10.7c0,.3-.1,.6-.3,.9-.2,.2-.5,.3-.9,.3-.3,0-.6-.1-.8-.3s-.3-.5-.3-.9v-.6c-.4,.6-1,1.1-1.8,1.5-.7,.4-1.5,.6-2.4,.6-1.1,0-2.1-.3-3-.9s-1.7-1.4-2.2-2.4-.8-2.2-.8-3.5,.3-2.4,.8-3.5c.5-1,1.2-1.8,2.1-2.4s1.9-.9,3-.9c.9,0,1.7,.2,2.4,.5,.7,.4,1.4,.8,1.8,1.4v-.6c0-.3,.1-.6,.3-.9,.3-.1,.6-.2,.9-.2h0Zm-5,11.2c.8,0,1.5-.2,2.1-.6s1.1-.9,1.4-1.6,.5-1.5,.5-2.4-.2-1.6-.5-2.3c-.3-.7-.8-1.2-1.4-1.6s-1.3-.6-2.1-.6-1.5,.2-2.1,.6-1.1,.9-1.4,1.6-.5,1.5-.5,2.3c0,.9,.2,1.7,.5,2.4,.3,.7,.8,1.2,1.4,1.6s1.3,.6,2.1,.6h0Zm13.2-8.7v7.4c0,.8,.4,1.3,1.1,1.3,.1,0,.3,0,.5-.1s.4-.1,.5-.1c.2,0,.4,.1,.5,.3,.2,.2,.2,.5,.2,.7,0,.3-.2,.6-.6,.9s-.9,.4-1.3,.4c-.5,0-1-.1-1.5-.2-.4-.1-.8-.4-1.2-.9-.3-.5-.5-1.2-.5-2.1v-7.6h-1.4c-.3,0-.6-.1-.8-.3s-.3-.5-.3-.8,.1-.6,.3-.8,.5-.3,.8-.3h1.4v-2.1c0-.3,.1-.6,.3-.8s.5-.4,.9-.4c.3,0,.6,.1,.8,.4,.2,.2,.3,.5,.3,.8v2.1h2c.3,0,.6,.1,.8,.3s.3,.5,.3,.8-.1,.6-.3,.8-.5,.3-.8,.3h-2Zm8.1,9.4c0,.3-.1,.6-.3,.9-.2,.2-.5,.3-.9,.3-.3,0-.6-.1-.8-.3s-.3-.5-.3-.9v-10.7c0-.3,.1-.6,.3-.8s.5-.4,.8-.4,.6,.1,.9,.4c.2,.2,.3,.5,.3,.8v10.7Zm-1.2-13.5c-.5,0-.8-.1-1-.3-.2-.2-.3-.5-.3-.8v-.4c0-.4,.1-.7,.3-.8,.2-.2,.6-.2,1-.2,.5,0,.8,.1,1,.3,.2,.2,.3,.4,.3,.8v.4c0,.4-.1,.7-.3,.9-.2,0-.5,.1-1,.1h0Zm16.8,8.2c0,1.3-.3,2.5-.9,3.5s-1.4,1.8-2.4,2.4-2.1,.9-3.3,.9-2.3-.3-3.3-.9-1.8-1.4-2.4-2.4-.9-2.2-.9-3.5,.3-2.4,.9-3.5c.6-1,1.4-1.8,2.4-2.4s2.1-.9,3.3-.9,2.3,.3,3.3,.9,1.8,1.4,2.4,2.4c.6,1.1,.9,2.3,.9,3.5h0Zm-2.3,0c0-.9-.2-1.7-.6-2.4-.3-.7-.9-1.2-1.5-1.6s-1.4-.6-2.1-.6c-.8,0-1.5,.2-2.1,.6s-1.1,.9-1.5,1.6-.5,1.5-.5,2.4,.2,1.7,.5,2.4c.4,.7,.9,1.2,1.5,1.6s1.4,.6,2.1,.6c.8,0,1.5-.2,2.1-.6s1.1-.9,1.5-1.6,.6-1.5,.6-2.4h0Zm11.7-6.7c3,0,4.4,1.8,4.4,5.3v6.7c0,.3-.1,.6-.3,.9-.2,.2-.5,.3-.9,.3-.3,0-.6-.1-.8-.3s-.3-.5-.3-.9v-6.7c0-1-.2-1.7-.7-2.3-.4-.6-1.2-.9-2.2-.9-.7,0-1.3,.1-1.8,.4s-.9,.7-1.2,1.1c-.3,.5-.5,1-.5,1.6v6.7c0,.3-.1,.6-.3,.9-.2,.2-.5,.3-.9,.3-.3,0-.6-.1-.9-.3-.2-.2-.3-.5-.3-.9v-10.6c0-.3,.1-.6,.3-.8s.5-.4,.8-.4,.6,.1,.9,.4c.2,.2,.3,.5,.3,.8v.9c.4-.7,1-1.2,1.8-1.7,.8-.3,1.7-.5,2.6-.5Z"/>
  <image class="c" width="733" height="878" transform="translate(722.7 36) scale(.83 .76)" xlink:href="0fbc092fa2de5123f3f3400955a85cf4.png"/>
</svg>